<?xml version="1.0" standalone="no"?>
<!DOCTYPE svg PUBLIC "-//W3C//DTD SVG 20010904//EN"
 "http://www.w3.org/TR/2001/REC-SVG-20010904/DTD/svg10.dtd">
<svg version="1.0" xmlns="http://www.w3.org/2000/svg"
 width="500.000000pt" height="500.000000pt" viewBox="0 0 500.000000 500.000000"
 preserveAspectRatio="xMidYMid meet">
<metadata>
Created by potrace 1.14, written by Peter Selinger 2001-2017
</metadata>
<g transform="translate(0.000000,500.000000) scale(0.100000,-0.100000)"
fill="#000000" stroke="none">
<path d="M2680 3538 l0 -175 -32 -11 -33 -10 41 -1 c47 -1 64 -15 64 -53 0
-25 -3 -28 -34 -28 -19 0 -46 -4 -60 -10 -21 -8 -25 -6 -29 13 -4 14 -5 12 -4
-7 2 -29 3 -30 57 -30 50 1 51 0 9 -3 l-46 -4 -7 -91 c-4 -50 -5 -92 -2 -95 2
-2 7 31 11 74 8 102 9 103 48 103 33 0 34 -2 41 -46 3 -26 6 -71 6 -100 l0
-53 -42 -9 -43 -10 45 -2 c44 -2 43 -3 -19 -12 -99 -14 -103 -24 -12 -31 45
-3 88 -11 96 -17 8 -7 15 -29 15 -50 l0 -38 -77 -5 c-43 -3 -90 -8 -105 -12
-26 -7 -27 -5 -31 36 -3 40 -4 39 -5 -13 -2 -53 0 -57 26 -66 15 -6 20 -11 12
-12 -24 -2 -100 -99 -165 -209 -50 -85 -62 -99 -70 -85 -35 60 -110 145 -162
184 -55 40 -62 49 -62 80 -1 46 26 97 70 133 33 26 39 27 59 15 42 -25 63 -85
70 -198 l7 -105 1 118 c2 129 -4 151 -56 201 -39 36 -63 31 -127 -26 -38 -35
-48 -52 -56 -92 -5 -27 -10 -51 -12 -52 -2 -2 -30 5 -62 15 l-60 19 3 158 c1
87 6 162 11 167 4 4 92 -4 194 -18 185 -26 254 -29 250 -10 -4 16 -395 83
-488 84 -56 0 -116 -35 -127 -74 -4 -16 -5 -89 -1 -162 l6 -131 -59 -7 c-56
-6 -168 -33 -206 -50 -17 -7 -18 2 -18 105 0 61 -4 109 -8 106 -5 -3 -15 5
-22 19 -7 13 -25 29 -41 35 -16 7 -32 24 -38 42 -6 16 -32 53 -58 82 l-48 53
-52 -44 c-29 -25 -55 -53 -58 -64 -4 -10 -27 -29 -53 -42 -36 -17 -53 -34 -72
-71 -25 -48 -25 -51 -22 -262 1 -118 7 -214 11 -214 5 0 12 86 16 191 6 162
10 190 23 187 8 -2 24 -15 35 -30 18 -23 22 -51 29 -170 5 -79 10 -147 13
-153 3 -5 3 63 1 151 -4 173 -16 224 -61 248 -11 6 -22 12 -24 13 -2 1 4 14
13 28 11 16 33 30 63 38 30 8 51 21 61 37 21 33 64 80 74 80 14 0 79 -74 94
-107 8 -18 20 -33 27 -33 7 0 22 -7 33 -15 l21 -14 -23 -48 c-25 -50 -44 -132
-44 -187 0 -24 -7 -36 -28 -48 -49 -29 -168 -162 -206 -230 -20 -36 -36 -68
-36 -71 0 -21 45 -1 83 38 25 25 48 45 50 45 3 0 11 -15 18 -32 l13 -33 4 38
c2 21 -2 45 -8 52 -9 11 0 26 46 72 l57 58 8 -30 c7 -30 7 -30 8 7 1 31 8 41
44 68 l42 31 6 -38 6 -38 2 42 c1 42 2 43 62 74 62 31 192 64 210 54 5 -4 10
-34 11 -68 l1 -62 6 65 6 65 37 -1 c67 -2 68 -4 69 -106 1 -101 11 -90 23 26
9 75 4 73 92 35 40 -17 42 -20 49 -71 10 -77 24 -94 25 -30 0 31 4 52 11 52
19 0 135 -98 178 -149 46 -55 49 -61 23 -54 -26 6 -44 -20 -40 -59 l4 -33 12
28 c15 34 25 34 51 0 16 -23 20 -24 21 -10 0 10 5 15 10 12 14 -9 13 1 -5 35
-15 30 -15 31 61 140 43 61 97 128 120 150 39 36 49 40 94 40 63 0 92 -15 152
-77 64 -66 112 -145 187 -306 35 -75 66 -135 68 -133 18 18 -124 314 -213 444
-40 58 -50 80 -43 93 5 10 9 48 9 86 0 70 -17 113 -44 113 -17 0 -27 159 -19
279 5 68 3 86 -9 95 -11 8 -18 53 -27 186 -7 96 -14 177 -17 179 -2 2 -4 -75
-4 -171z m-770 -598 l0 -170 -47 7 c-27 3 -50 8 -53 10 -3 3 -5 63 -5 133 0
143 4 153 67 176 18 6 34 12 36 13 1 0 2 -75 2 -169z m-419 -112 c0 -18 3 -51
5 -73 4 -38 2 -41 -37 -63 -23 -12 -44 -20 -46 -18 -9 8 20 126 38 155 24 40
39 39 40 -1z m1146 -24 c-3 -3 -12 -4 -19 -1 -8 3 -5 6 6 6 11 1 17 -2 13 -5z
m-60 -10 c-3 -3 -12 -4 -19 -1 -8 3 -5 6 6 6 11 1 17 -2 13 -5z"/>
<path d="M3250 3073 c-14 -2 -55 -11 -92 -19 -61 -15 -68 -19 -68 -41 0 -19 4
-23 18 -19 47 14 111 25 142 25 21 -1 4 -6 -45 -15 -126 -23 -175 -42 -175
-67 0 -12 9 -28 20 -34 11 -7 24 -27 29 -45 7 -26 9 -28 10 -10 1 12 -6 39
-14 59 -8 20 -13 38 -11 40 7 7 179 33 220 33 26 0 56 -11 97 -36 33 -19 59
-37 59 -39 0 -1 -7 -19 -15 -38 -20 -48 -19 -70 2 -32 8 17 24 38 34 48 26 24
24 43 -6 63 -14 9 -27 30 -31 50 -4 24 -16 39 -40 53 l-34 20 0 -24 c0 -14 11
-32 28 -45 l27 -22 -30 18 c-16 9 -43 21 -60 25 l-30 7 28 1 c22 1 27 6 27 26
0 22 -4 25 -32 24 -18 -1 -44 -3 -58 -6z"/>
<path d="M2386 2838 c4 -106 8 -195 10 -197 2 -2 4 82 4 187 0 120 -4 193 -10
197 -7 5 -8 -55 -4 -187z"/>
<path d="M3253 2939 c-7 -7 -13 -24 -13 -37 0 -21 1 -22 16 -8 8 9 14 25 12
37 -2 16 -5 18 -15 8z"/>
<path d="M3186 2924 c-3 -9 -6 -28 -6 -42 l0 -27 15 29 c17 32 19 56 6 56 -5
0 -12 -7 -15 -16z"/>
<path d="M3132 2913 c-6 -12 -11 -37 -11 -55 1 -27 3 -29 6 -8 3 14 9 28 15
31 5 4 8 17 6 30 l-3 24 -13 -22z"/>
<path d="M4115 2881 c-77 -22 -113 -42 -149 -80 l-30 -31 -35 34 c-41 39 -97
70 -111 61 -22 -14 -9 -41 26 -54 42 -15 104 -67 104 -87 0 -21 6 -18 50 30
50 54 87 72 166 81 52 6 63 10 73 31 6 14 11 27 11 29 0 10 -46 3 -105 -14z"/>
<path d="M3144 2778 l-62 -9 -11 -44 c-6 -25 -10 -118 -9 -217 1 -170 1 -171
9 -68 4 58 8 148 9 201 l2 96 101 10 c56 6 108 8 116 5 12 -4 13 -45 8 -251
-4 -135 -7 -256 -7 -268 0 -20 -6 -23 -42 -24 l-43 -2 39 -6 c30 -5 41 -12 51
-36 l13 -30 1 28 1 27 120 0 c129 0 190 15 190 46 0 9 -5 34 -11 55 -17 54 3
79 101 128 76 38 85 40 141 34 56 -6 63 -4 103 26 60 42 90 41 137 -9 l37 -39
16 24 c18 27 54 40 83 31 10 -3 36 -22 58 -42 45 -41 92 -64 130 -64 22 0 25
4 25 35 0 32 -2 35 -29 35 -45 0 -80 17 -127 60 -24 22 -53 42 -66 45 -29 7
-76 -9 -84 -30 -10 -24 -27 -18 -57 20 -36 45 -73 46 -132 4 -41 -30 -48 -31
-102 -25 -53 6 -65 3 -122 -25 -35 -17 -90 -58 -122 -89 -53 -52 -59 -62 -59
-98 0 -23 5 -44 10 -47 21 -13 8 -35 -27 -44 -21 -6 -78 -11 -127 -11 l-89 0
6 73 c4 39 9 137 12 217 8 204 12 230 33 223 51 -18 52 -24 54 -232 1 -142 3
-178 8 -131 4 36 8 128 9 205 1 160 -3 172 -71 205 -46 22 -117 24 -224 8z"/>
<path d="M3140 2655 c-29 -31 -32 -85 -5 -115 40 -44 125 -8 125 54 0 75 -72
112 -120 61z m90 -26 c27 -49 -23 -108 -61 -73 -21 19 -24 45 -9 75 14 26 56
25 70 -2z"/>
<path d="M2589 2568 c-42 -33 -239 -253 -239 -268 0 -4 39 33 88 82 111 115
198 188 223 188 10 0 28 -9 38 -19 19 -19 19 -21 -9 -97 -16 -43 -28 -79 -27
-81 2 -1 19 27 38 62 19 36 37 65 40 65 3 0 15 -13 27 -29 49 -66 244 -292
249 -288 16 16 -274 396 -313 411 -35 14 -74 5 -115 -26z"/>
<path d="M2605 2465 c4 -33 11 -67 16 -75 6 -10 7 7 3 45 -4 33 -11 67 -16 75
-6 10 -7 -7 -3 -45z"/>
<path d="M1413 2464 c-17 -9 -39 -31 -47 -49 -24 -49 -19 -64 9 -29 13 17 38
37 55 44 26 11 33 10 50 -5 11 -10 20 -24 20 -31 0 -7 5 -16 10 -19 17 -11 11
52 -7 73 -25 29 -53 34 -90 16z"/>
<path d="M1686 2460 c-35 -11 -63 -36 -83 -75 l-16 -29 24 17 c62 45 86 57
117 57 43 0 68 -14 86 -48 l15 -27 0 30 c0 65 -63 99 -143 75z"/>
<path d="M2001 2461 c-32 -9 -66 -54 -57 -77 6 -16 8 -16 19 6 26 52 113 48
179 -8 37 -32 36 -11 -3 32 -25 29 -86 59 -109 55 -3 -1 -16 -4 -29 -8z"/>
<path d="M1472 2268 c-17 -17 -15 -53 3 -68 20 -16 61 3 68 31 10 37 -44 64
-71 37z"/>
<path d="M495 2224 c-88 -20 -107 -35 -92 -74 8 -21 7 -64 -5 -167 -16 -137
-12 -173 15 -173 22 0 37 23 38 59 2 72 10 83 69 98 152 38 237 121 208 204
-20 59 -112 79 -233 53z m156 -63 c20 -16 22 -23 14 -47 -8 -21 -27 -37 -74
-60 -34 -18 -76 -34 -92 -36 -33 -5 -33 -2 -23 89 6 49 8 52 43 61 60 16 107
14 132 -7z"/>
<path d="M1866 2218 c-20 -33 -60 -387 -45 -405 28 -33 51 -4 61 73 4 37 11
71 16 76 4 4 55 -26 112 -68 84 -60 110 -74 135 -72 24 2 31 8 33 31 3 24 0
27 -24 27 -18 0 -55 21 -110 62 l-82 63 85 81 c88 83 98 105 60 128 -16 9 -23
6 -45 -24 -41 -53 -156 -162 -160 -150 -2 6 2 43 9 83 14 78 13 98 -4 109 -19
12 -26 9 -41 -14z"/>
<path d="M1642 2130 c-77 -35 -109 -89 -82 -141 6 -10 33 -30 60 -44 27 -13
52 -30 55 -36 13 -20 -16 -34 -75 -36 -66 -2 -80 -7 -80 -28 0 -25 38 -37 93
-30 58 8 81 18 115 48 43 40 23 79 -65 127 -54 30 -58 62 -12 85 17 9 40 15
52 15 39 -4 47 0 47 18 0 44 -41 53 -108 22z"/>
<path d="M885 2112 c-100 -61 -169 -218 -117 -265 36 -33 91 -19 148 35 l31
29 7 -34 c8 -44 28 -61 61 -53 29 7 32 27 9 47 -14 12 -16 28 -11 115 l7 101
-30 21 c-36 27 -65 28 -105 4z m61 -106 c-16 -42 -93 -126 -116 -126 -17 0
-11 58 9 99 11 21 36 52 57 70 33 29 38 31 52 17 14 -13 13 -19 -2 -60z"/>
<path d="M1140 2112 c-19 -15 -22 -31 -27 -142 -4 -99 -2 -129 9 -144 23 -29
55 -13 63 32 10 58 48 133 88 175 30 33 39 37 56 28 50 -27 76 5 35 46 -43 43
-91 18 -161 -82 -28 -40 -34 -45 -29 -22 18 77 18 114 3 120 -9 3 -25 -2 -37
-11z"/>
<path d="M2354 2119 c-37 -10 -90 -67 -111 -116 -19 -48 -19 -117 1 -148 39
-60 112 -57 181 6 80 74 96 173 38 230 -33 33 -66 41 -109 28z m60 -65 c10 -9
16 -33 16 -59 0 -35 -6 -52 -31 -80 -78 -88 -141 -31 -90 81 18 41 54 74 78
74 6 0 19 -7 27 -16z"/>
<path d="M2591 2120 c-18 -11 -40 -264 -24 -288 20 -33 45 -19 79 46 42 79 92
152 104 152 6 0 10 -21 10 -47 0 -85 11 -124 36 -135 33 -15 57 8 105 104 56
112 61 111 74 -10 9 -83 39 -122 79 -104 30 13 33 28 11 53 -9 9 -20 48 -26
85 -14 93 -27 123 -56 130 -36 10 -72 -22 -113 -99 -19 -37 -38 -67 -42 -67
-5 0 -8 28 -8 63 0 144 -92 141 -166 -5 -30 -59 -39 -58 -25 3 16 68 14 107
-7 118 -10 5 -24 6 -31 1z"/>
<path d="M3163 2122 c-5 -4 -16 -66 -23 -137 -10 -101 -10 -136 -1 -153 22
-41 46 -27 84 51 20 39 51 90 69 111 32 39 32 39 39 15 4 -13 7 -50 8 -81 1
-37 6 -62 17 -72 36 -37 66 -11 125 105 22 45 44 78 49 73 4 -5 13 -44 18 -87
14 -108 52 -146 97 -97 18 20 18 21 -3 43 -15 16 -25 45 -32 97 -12 87 -30
120 -66 120 -33 0 -66 -34 -105 -111 l-33 -64 -8 69 c-9 72 -27 106 -59 106
-29 0 -76 -47 -114 -113 -20 -34 -33 -51 -30 -37 18 83 22 126 14 141 -10 20
-32 30 -46 21z"/>
<path d="M3893 2118 c-15 -20 -43 -148 -43 -198 0 -61 21 -90 66 -90 28 0 45
10 84 46 l50 47 0 -32 c0 -59 30 -86 69 -62 11 7 10 13 -4 35 -17 26 -17 43
-3 201 3 26 0 30 -22 30 -22 0 -28 -8 -47 -64 -31 -91 -131 -190 -134 -133 -2
36 3 69 22 131 23 76 22 66 3 85 -19 19 -28 20 -41 4z"/>
<path d="M1434 2108 c-13 -21 -33 -151 -33 -221 -1 -73 10 -88 47 -68 16 9 19
18 14 56 -2 26 3 84 14 136 16 78 16 92 4 99 -21 13 -37 12 -46 -2z"/>
<path d="M4335 2109 c-27 -5 -68 -7 -91 -4 -49 7 -76 -14 -53 -41 11 -13 27
-15 86 -12 87 6 90 15 -50 -128 -57 -58 -97 -107 -93 -113 11 -17 45 -13 93
10 41 20 122 27 193 17 21 -2 26 2 28 24 4 35 -24 43 -115 35 l-66 -6 60 62
c93 98 118 134 103 152 -14 17 -22 17 -95 4z"/>
<path d="M3704 1896 c-9 -24 0 -61 16 -64 21 -4 62 36 58 56 -4 23 -66 29 -74
8z"/>
</g>
</svg>
